<?xml version="1.0" encoding="UTF-8"?>
<!DOCTYPE svg PUBLIC "-//W3C//DTD SVG 1.1//EN" "http://www.w3.org/Graphics/SVG/1.1/DTD/svg11.dtd">
<!-- Creator: CorelDRAW 2026 -->
<svg xmlns="http://www.w3.org/2000/svg" xml:space="preserve" width="54in" height="11.8215in" version="1.1" style="shape-rendering:geometricPrecision; text-rendering:geometricPrecision; image-rendering:optimizeQuality; fill-rule:evenodd; clip-rule:evenodd"
viewBox="0 0 28755.31 6295"
 xmlns:xlink="http://www.w3.org/1999/xlink"
 xmlns:xodm="http://www.corel.com/coreldraw/odm/2003">
 <defs>
  <style type="text/css">
   <![CDATA[
    .fil12 {fill:none}
    .fil7 {fill:#FEFEFE}
    .fil4 {fill:#848688}
    .fil8 {fill:#373435}
    .fil2 {fill:#FFF212}
    .fil10 {fill:#FFF212}
    .fil5 {fill:#F58634}
    .fil1 {fill:#EC268F}
    .fil11 {fill:#EC268F}
    .fil0 {fill:#00AFEF}
    .fil9 {fill:#00AFEF}
    .fil3 {fill:#201E1E}
    .fil13 {fill:#848688;fill-rule:nonzero}
    .fil6 {fill:#373435;fill-rule:nonzero}
    .fil15 {fill:#F16636;fill-rule:nonzero}
    .fil14 {fill:#201E1E;fill-rule:nonzero}
   ]]>
  </style>
   <clipPath id="id0">
    <path d="M3107.18 1485.13c918.14,0 1662.42,744.28 1662.42,1662.41 0,918.14 -744.28,1662.41 -1662.42,1662.41 -918.09,0 -1662.41,-744.28 -1662.41,-1662.41 0,-918.14 744.32,-1662.41 1662.41,-1662.41z"/>
   </clipPath>
 </defs>
 <g id="Layer_x0020_1">
  <metadata id="CorelCorpID_0Corel-Layer"/>
  <polygon class="fil0" points="12027.95,5825.37 15227.62,5825.37 15227.62,6227.6 12027.95,6227.6 "/>
  <polygon class="fil1" points="18427.27,5825.37 15227.62,5825.37 15227.62,6227.6 18427.27,6227.6 "/>
  <polygon class="fil2" points="18427.27,5825.37 21626.98,5825.37 21626.98,6227.6 18427.27,6227.6 "/>
  <polygon class="fil3" points="24835.56,5825.35 21626.97,5825.35 21626.97,6227.6 24648.81,6227.6 "/>
  <path class="fil4" d="M3107.18 40.32c1716.06,0 3107.23,1391.12 3107.23,3107.23 0,1716.06 -1391.17,3107.18 -3107.23,3107.18 -1716.06,0 -3107.18,-1391.12 -3107.18,-3107.18 0,-1716.1 1391.12,-3107.23 3107.18,-3107.23z"/>
  <path class="fil5" d="M3107.18 1362.39c985.9,0 1785.15,799.25 1785.15,1785.15 0,985.9 -799.25,1785.11 -1785.15,1785.11 -985.9,0 -1785.11,-799.2 -1785.11,-1785.11 0,-985.9 799.21,-1785.15 1785.11,-1785.15z"/>
  <path class="fil6" d="M3107.18 1119.75c559.92,0 1066.88,227.05 1433.81,593.98 366.93,366.93 593.98,873.89 593.98,1433.81 0,559.82 -227,1066.83 -593.98,1433.76 -366.93,366.93 -873.89,593.98 -1433.81,593.98 -559.82,0 -1066.83,-227 -1433.81,-593.93 -366.93,-366.98 -593.94,-873.99 -593.94,-1433.81 0,-559.92 227.05,-1066.87 593.98,-1433.81 366.93,-366.98 873.94,-593.98 1433.76,-593.98zm1090.76 937.03c-279.09,-279.09 -664.77,-451.76 -1090.76,-451.76 -425.99,0 -811.67,172.67 -1090.72,451.76 -279.09,279.09 -451.76,664.77 -451.76,1090.76 0,425.99 172.67,811.67 451.71,1090.76 279.09,279.04 664.77,451.71 1090.76,451.71 425.99,0 811.67,-172.67 1090.76,-451.76 279.09,-279.04 451.76,-664.73 451.76,-1090.72 0,-425.99 -172.67,-811.67 -451.76,-1090.76z"/>
  <path class="fil7" d="M3107.18 1485.13c918.14,0 1662.42,744.28 1662.42,1662.41 0,918.14 -744.28,1662.41 -1662.42,1662.41 -918.09,0 -1662.41,-744.28 -1662.41,-1662.41 0,-918.14 744.32,-1662.41 1662.41,-1662.41z"/>
  <g style="clip-path:url(#id0)">
   <g id="_2071099030448">
    <path id="_1" class="fil8" d="M3086.7 1538.74l40.99 0 0 410.71c-6.82,-0.11 -13.64,-0.26 -20.49,-0.26 -6.85,0 -13.67,0.14 -20.5,0.26l0 -410.71zm1218.58 1588.31l410.71 0 0 40.98 -410.71 0c0.11,-6.82 0.26,-13.64 0.26,-20.49 0,-6.85 -0.14,-13.67 -0.26,-20.49zm-1177.59 1218.58l0 410.71 -40.99 0 0 -410.71c6.83,0.11 13.64,0.26 20.5,0.26 6.85,0 13.67,-0.14 20.49,-0.26zm-1218.58 -1177.6l-410.71 0 0 -40.98 410.71 0c-0.11,6.82 -0.26,13.64 -0.26,20.49 0,6.85 0.14,13.66 0.26,20.49z"/>
    <g>
     <path class="fil9" d="M1901.76 3079.29c34.14,-612.46 524.7,-1103.04 1137.17,-1137.18l0 1137.18 -1137.17 0z"/>
     <path class="fil8" d="M3038.94 4352.98c-612.47,-34.14 -1103.03,-524.71 -1137.17,-1137.18l1137.17 0 0 1137.18z"/>
     <path class="fil10" d="M4312.62 3215.8c-34.14,612.47 -524.71,1103.04 -1137.17,1137.18l0 -1137.18 1137.17 0z"/>
     <path class="fil11" d="M3175.45 1942.11c612.46,34.14 1103.03,524.72 1137.17,1137.18l-1137.17 0 0 -1137.18z"/>
    </g>
   </g>
  </g>
  <path class="fil12" d="M3107.18 1485.13c918.14,0 1662.42,744.28 1662.42,1662.41 0,918.14 -744.28,1662.41 -1662.42,1662.41 -918.09,0 -1662.41,-744.28 -1662.41,-1662.41 0,-918.14 744.32,-1662.41 1662.41,-1662.41z"/>
  <path class="fil13" d="M11217.05 6295l-1936.19 0 -2296.48 -3431.14c0,1153.14 10.52,2284.53 10.52,3431.14l-2081.82 0 0 -350.99c916.32,-592.91 1522.82,-1623.81 1522.82,-2796.46 0,-1168.87 -602.61,-2196.81 -1513.83,-2790.64l0 -356.91 2584.66 0 1641.89 2449.56 0 -2449.56 564.52 0 1503.92 0 0 3489.96 0 2805.04z"/>
  <path class="fil14" d="M12027.93 4134.52l716.1 0c128.2,0 232.09,12.88 311.64,38.62 79.58,25.73 141.47,60.29 185.67,103.7 44.19,43.38 74.04,93.38 89.52,150.01 15.47,56.63 23.21,116.55 23.21,179.8 0,73.54 -15.47,137.52 -46.42,191.95 -30.95,54.4 -72.94,99.64 -125.97,135.66 -53.06,36.05 -114.56,63.25 -184.56,81.63 -69.98,18.38 -144.78,27.59 -224.33,27.59l-167.99 0 0 341.93 134.84 0 0 291.22 -711.69 0 0 -291.22 123.77 0 0 -961.86 -123.77 0 0 -289.02zm576.85 286.8l0 383.87 99.45 0c64.84,0 117.16,-15.81 156.94,-47.41 39.76,-31.63 59.67,-76.86 59.67,-135.69 0,-66.18 -18.05,-116.18 -54.16,-150.01 -36.09,-33.85 -86.55,-50.76 -151.39,-50.76l-110.52 0zm1463.16 1255.3l-625.48 0 0 -288.99 97.25 0 0 -527.28 -95.05 0 0 -286.79 415.52 0 66.31 141.19c14.74,-26.47 30.21,-51.47 46.42,-75 16.21,-23.54 36.82,-44.48 61.87,-62.88 25.05,-18.38 56,-32.72 92.82,-43.01 36.85,-10.29 84.01,-15.45 141.47,-15.45l0 397.12c-100.22,0 -177.19,16.55 -230.96,49.64 -53.79,33.09 -80.67,98.17 -80.67,195.25l0 227.24 110.5 0 0 288.99zm908.4 0l-618.85 0 0 -288.99 92.82 0 0 -527.28 -92.82 0 0 -286.79 512.75 0 0 814.07 106.09 0 0 288.99zm-556.97 -1425.15c0,-25 5.17,-50.76 15.47,-77.23 10.31,-26.47 25.42,-50.73 45.32,-72.8 19.88,-22.04 44.93,-40.08 75.14,-54.03 30.21,-13.98 64.47,-20.97 102.76,-20.97 38.32,0 72.57,6.99 102.79,20.97 30.21,13.95 55.63,31.99 76.24,54.03 20.64,22.07 36.48,46.34 47.53,72.8 11.04,26.47 16.57,52.23 16.57,77.23 0,61.76 -20.61,114.35 -61.87,157.73 -41.26,43.38 -101.68,65.08 -181.26,65.08 -35.36,0 -67.4,-6.62 -96.13,-19.87 -28.74,-13.22 -53.79,-30.5 -75.14,-51.84 -21.38,-21.33 -37.95,-45.21 -49.75,-71.7 -11.78,-26.47 -17.68,-52.94 -17.68,-79.4zm1348.24 1425.15l-680.74 0 0 -288.99 92.82 0 0 -527.28 -92.82 0 0 -286.79 470.76 0 50.83 136.79c38.32,-51.49 82.91,-93.77 133.73,-126.86 50.83,-33.09 111.6,-49.64 182.33,-49.64 85.48,0 154.35,14.35 206.65,43.01 52.32,28.69 92.85,66.2 121.57,112.52 28.74,46.34 47.89,98.54 57.46,156.63 9.57,58.09 14.37,115.84 14.37,173.2l0 368.42 103.89 0 0 288.99 -556.97 0 0 -602.28c0,-19.11 -0.37,-40.45 -1.13,-63.98 -0.74,-23.51 -4.78,-45.58 -12.14,-66.18 -7.37,-20.58 -19.51,-38.22 -36.46,-52.94 -16.97,-14.71 -41.65,-22.07 -74.06,-22.07 -27.99,0 -51.2,6.26 -69.61,18.74 -18.41,12.51 -32.78,28.69 -43.09,48.54 -10.33,19.87 -17.31,41.94 -21.01,66.21 -3.67,24.24 -5.53,48.15 -5.53,71.68l0 313.29 159.15 0 0 288.99zm727.16 -1103.07l119.36 0 0 -202.97 406.66 -130.16 0 333.13 209.98 0 0 286.79 -209.98 0 0 392.69c0,19.11 -0.37,38.98 -1.1,59.56 -0.74,20.6 0.73,39.71 4.43,57.36 3.67,17.67 10.31,31.99 19.88,43.04 9.57,11.02 25.41,16.55 47.52,16.55 14.74,0 36.46,-4.06 65.2,-12.15 28.72,-8.09 53.4,-16.55 74.04,-25.37l0 282.4c-16.21,7.36 -36.85,13.59 -61.9,18.74 -25.05,5.16 -50.83,9.19 -77.35,12.15 -26.52,2.93 -51.2,5.5 -74.04,7.7 -22.85,2.22 -40.89,3.33 -54.16,3.33 -82.51,0 -146.98,-11.02 -193.38,-33.09 -46.42,-22.07 -80.68,-52.96 -102.79,-92.67 -22.11,-39.69 -36.09,-88.23 -41.99,-145.58 -5.9,-57.36 -9.57,-121.34 -11.04,-191.95l0 -392.69 -119.36 0 0 -286.79zm1401.29 92.65c22.09,-13.22 50.1,-28.67 83.98,-46.31 33.89,-17.64 71.84,-34.95 113.83,-51.86 41.99,-16.91 86.94,-30.87 134.81,-41.91 47.89,-11.02 97.62,-16.55 149.21,-16.55 66.3,0 134.81,6.99 205.55,20.97 70.71,13.95 135.18,38.22 193.38,72.8 58.2,34.56 106.09,81.26 143.68,140.09 37.56,58.83 56.36,132.36 56.36,220.61l0 430.18 132.61 0 0 282.4 -472.99 0 -53.03 -99.27c-20.64,27.94 -43.85,51.1 -69.63,69.48 -25.78,18.4 -52.3,32.72 -79.57,43.04 -27.25,10.29 -54.14,17.64 -80.65,22.04 -26.54,4.42 -49.36,6.62 -68.53,6.62 -53.03,0 -105.36,-7.36 -156.92,-22.07 -51.56,-14.69 -97.99,-36.76 -139.24,-66.18 -41.26,-29.4 -74.78,-67.28 -100.56,-113.62 -25.78,-46.31 -38.69,-101.84 -38.69,-166.55 0,-61.78 12.17,-117.65 36.48,-167.65 24.29,-50.03 57.46,-92.67 99.45,-127.96 41.99,-35.29 90.99,-62.51 146.98,-81.63 55.97,-19.11 114.93,-28.69 176.8,-28.69 32.42,0 61.53,3.32 87.31,9.95 25.78,6.6 47.89,14.32 66.3,23.14 18.41,8.82 33.15,17.67 44.19,26.49 11.07,8.82 18.07,14.69 21.01,17.64l0 -77.23c0,-50 -19.88,-83.09 -59.67,-99.27 -39.79,-16.18 -89.88,-24.27 -150.31,-24.27 -66.3,0 -127.07,11.05 -182.33,33.09 -55.26,22.07 -104.26,44.87 -146.98,68.41l-92.82 -255.93zm490.67 765.54c33.89,0 63.34,-8.09 88.39,-24.27 25.07,-16.18 42.75,-32.36 53.06,-48.54l0 -83.83c-1.47,-2.96 -4.8,-7.72 -9.94,-14.35 -5.17,-6.62 -12.9,-13.61 -23.21,-20.95 -10.31,-7.35 -23.21,-13.98 -38.69,-19.87 -15.47,-5.89 -34.99,-8.82 -58.57,-8.82 -44.19,0 -76.61,11.02 -97.25,33.09 -20.62,22.07 -30.95,50 -30.95,83.83 0,30.89 11.07,55.89 33.15,75.03 22.11,19.11 50.12,28.67 84.01,28.67zm1491.89 244.88l-680.74 0 0 -288.99 92.82 0 0 -527.28 -92.82 0 0 -286.79 470.76 0 50.83 136.79c38.32,-51.49 82.91,-93.77 133.73,-126.86 50.83,-33.09 111.6,-49.64 182.33,-49.64 85.48,0 154.35,14.35 206.65,43.01 52.32,28.69 92.84,66.2 121.56,112.52 28.74,46.34 47.89,98.54 57.46,156.63 9.57,58.09 14.37,115.84 14.37,173.2l0 368.42 103.89 0 0 288.99 -556.97 0 0 -602.28c0,-19.11 -0.37,-40.45 -1.13,-63.98 -0.73,-23.51 -4.77,-45.58 -12.14,-66.18 -7.37,-20.58 -19.51,-38.22 -36.46,-52.94 -16.97,-14.71 -41.65,-22.07 -74.06,-22.07 -27.99,0 -51.2,6.26 -69.61,18.74 -18.41,12.51 -32.78,28.69 -43.09,48.54 -10.33,19.87 -17.31,41.94 -21.01,66.21 -3.67,24.24 -5.53,48.15 -5.53,71.68l0 313.29 159.15 0 0 288.99zm1507.36 -1367.79l-101.66 0 0 -286.82 550.34 0 0 1367.82 106.09 0 0 286.79 -517.18 0 -37.58 -81.63c-7.37,7.36 -18.78,16.55 -34.25,27.57 -15.47,11.05 -34.99,22.07 -58.57,33.09 -23.58,11.05 -50.83,20.6 -81.78,28.69 -30.95,8.09 -65.57,12.12 -103.89,12.12 -78.08,0 -148.82,-15.81 -212.18,-47.41 -63.34,-31.63 -117.13,-74.27 -161.33,-127.96 -44.22,-53.69 -78.47,-115.82 -102.79,-186.42 -24.31,-70.58 -36.46,-144.12 -36.46,-220.61 0,-85.29 13.98,-162.89 41.99,-232.74 27.98,-69.87 65.57,-129.06 112.73,-177.6 47.13,-48.54 101.66,-86.05 163.56,-112.52 61.87,-26.47 126.71,-39.72 194.48,-39.72 78.1,0 138.87,10.68 182.36,31.99 43.46,21.34 75.51,38.61 96.13,51.86l0 -326.51zm-316.05 805.23c0,33.82 3.67,66.92 11.04,99.27 7.37,32.36 18.05,61.05 32.05,86.05 14,25 30.58,45.58 49.73,61.76 19.15,16.18 41.25,24.27 66.3,24.27 22.11,0 43.09,-6.6 63,-19.85 19.88,-13.25 37.19,-31.99 51.93,-56.26 14.74,-24.27 25.78,-53.69 33.15,-88.25 7.37,-34.56 10.33,-73.91 8.84,-118.02 0,-36.78 -4.41,-71.34 -13.25,-103.7 -8.84,-32.36 -20.64,-60.66 -35.38,-84.93 -14.72,-24.27 -31.66,-43.04 -50.83,-56.26 -19.15,-13.25 -39.05,-19.87 -59.67,-19.87 -47.16,0 -85.08,25 -113.83,75.03 -28.72,50 -43.09,116.92 -43.09,200.74zm1511.79 562.57l0 -555.94 411.09 0c0,47.07 10.31,84.56 30.95,112.52 20.61,27.94 45.29,49.64 74.04,65.08 28.72,15.44 58.93,26.1 90.62,31.99 31.68,5.87 59.3,9.56 82.88,11.02 19.15,0 39.79,-1.47 61.9,-4.42 22.08,-2.93 42.36,-8.46 60.77,-16.55 18.41,-8.09 33.89,-19.11 46.42,-33.09 12.51,-13.96 18.78,-32.73 18.78,-56.26 0,-27.94 -21.01,-51.1 -63,-69.48 -41.99,-18.38 -94.29,-36.42 -156.92,-54.06 -62.63,-17.65 -130.77,-37.86 -204.44,-60.66 -73.67,-22.8 -141.81,-54.06 -204.45,-93.77 -62.63,-39.69 -114.93,-90.08 -156.92,-151.11 -41.99,-61.05 -63,-138.62 -63,-232.76 0,-80.87 17.31,-151.47 51.96,-211.77 34.62,-60.32 78.08,-109.59 130.4,-147.83 52.3,-38.22 109.03,-66.91 170.17,-86.02 61.16,-19.11 118.99,-28.69 173.52,-28.69 45.66,0 91.35,4.06 137.02,12.15 45.69,8.09 89.15,20.94 130.4,38.61 41.26,17.65 78.47,40.81 111.62,69.48 33.15,28.69 60.77,63.62 82.88,104.8l22.11 -185.32 380.14 0 0 553.75 -400.05 0c0,-41.18 -7.37,-77.57 -22.08,-109.19 -14.74,-31.63 -35.01,-58.46 -60.8,-80.53 -25.78,-22.07 -56,-38.62 -90.62,-49.64 -34.62,-11.05 -71.1,-16.55 -109.4,-16.55 -16.21,0 -33.15,2.57 -50.85,7.72 -17.68,5.13 -34.25,12.49 -49.73,22.04 -15.47,9.58 -27.99,21.7 -37.56,36.42 -9.57,14.71 -14.37,31.62 -14.37,50.73 0,38.25 21.74,69.87 65.2,94.87 43.46,25 97.62,48.54 162.45,70.58 64.83,22.07 134.81,45.97 209.95,71.71 75.17,25.73 145.14,57.72 209.98,95.97 64.83,38.22 118.99,86.03 162.45,143.38 43.46,57.36 65.2,129.43 65.2,216.22 0,86.76 -18.04,159.56 -54.16,218.41 -36.09,58.83 -82.51,107 -139.24,144.49 -56.73,37.51 -119.7,64.35 -188.97,80.53 -69.24,16.18 -137.02,24.27 -203.34,24.27 -55.97,0 -107.56,-5.89 -154.69,-17.64 -47.16,-11.78 -89.88,-27.2 -128.2,-46.34 -38.32,-19.11 -72.57,-40.81 -102.79,-65.08 -30.19,-24.27 -55.63,-48.9 -76.24,-73.9l-24.31 169.88 -386.78 0zm2188.1 0l-618.84 0 0 -288.99 92.82 0 0 -527.28 -92.82 0 0 -286.79 512.75 0 0 814.07 106.09 0 0 288.99zm-556.97 -1425.15c0,-25 5.17,-50.76 15.47,-77.23 10.31,-26.47 25.42,-50.73 45.32,-72.8 19.88,-22.04 44.93,-40.08 75.14,-54.03 30.21,-13.98 64.47,-20.97 102.76,-20.97 38.32,0 72.57,6.99 102.79,20.97 30.21,13.95 55.63,31.99 76.24,54.03 20.64,22.07 36.48,46.34 47.52,72.8 11.04,26.47 16.58,52.23 16.58,77.23 0,61.76 -20.62,114.35 -61.87,157.73 -41.25,43.38 -101.68,65.08 -181.26,65.08 -35.36,0 -67.41,-6.62 -96.13,-19.87 -28.74,-13.22 -53.79,-30.5 -75.14,-51.84 -21.38,-21.33 -37.95,-45.21 -49.75,-71.7 -11.78,-26.47 -17.68,-52.94 -17.68,-79.4zm782.42 1547.35c13.25,11.75 32.78,25.37 58.57,40.81 25.78,15.44 55.63,30.87 89.52,46.31 33.89,15.45 71.13,28.33 111.62,38.62 40.5,10.26 82.15,15.44 124.87,15.44 50.1,0 91.35,-6.65 123.77,-19.87 32.39,-13.22 58.57,-29.79 78.45,-49.64 19.88,-19.85 33.91,-41.91 42.02,-66.18 8.1,-24.27 12.14,-48.17 12.14,-71.68l0 -183.98c-7.37,10.31 -18.41,22.43 -33.15,36.41 -14.74,13.98 -32.78,27.2 -54.16,39.71 -21.35,12.49 -46.4,23.15 -75.14,31.99 -28.72,8.82 -60.77,13.22 -96.13,13.22 -95.78,0 -177.19,-15.81 -244.23,-47.44 -67.06,-31.6 -121.56,-73.17 -163.56,-124.64 -41.99,-51.47 -72.94,-110.29 -92.84,-176.48 -19.88,-66.21 -29.82,-133.85 -29.82,-202.97 0,-85.32 11.78,-162.89 35.36,-232.76 23.58,-69.85 58.57,-129.43 104.99,-178.7 46.42,-49.27 104.26,-87.49 173.5,-114.72 69.27,-27.2 149.55,-40.81 240.9,-40.81 48.63,0 94.31,9.56 137.04,28.69 42.73,19.11 75.14,39.71 97.25,61.76l44.2 -68.38 526.05 0 0 289 -132.61 0 0 768.59c0,91.16 -14.03,173.91 -42.02,248.18 -27.99,74.27 -70.71,137.91 -128.18,190.85 -198.27,182.73 -396.77,312.14 -1096.83,152.99l188.43 -424.34zm322.68 -684.76c0,33.82 3.7,66.92 11.07,99.27 7.35,32.36 18.04,61.05 32.03,86.05 14,25 30.58,45.58 49.75,61.76 19.15,16.18 41.26,24.27 66.31,24.27 22.08,0 43.09,-6.6 62.97,-19.85 19.91,-13.25 37.22,-31.99 51.95,-56.26 14.72,-24.27 25.78,-53.69 33.15,-88.25 7.37,-34.56 10.31,-73.91 8.84,-118.02 0,-36.78 -4.43,-71.34 -13.27,-103.7 -8.84,-32.36 -20.61,-60.66 -35.36,-84.93 -14.74,-24.27 -31.68,-43.04 -50.83,-56.26 -19.17,-13.25 -39.05,-19.87 -59.69,-19.87 -47.13,0 -85.08,25 -113.83,75.03 -28.72,50 -43.09,116.92 -43.09,200.74zm1657.67 562.57l-680.74 0 0 -288.99 92.82 0 0 -527.28 -92.82 0 0 -286.79 470.76 0 50.83 136.79c38.32,-51.49 82.91,-93.77 133.73,-126.86 50.83,-33.09 111.6,-49.64 182.33,-49.64 85.48,0 154.35,14.35 206.65,43.01 52.32,28.69 92.85,66.2 121.57,112.52 28.74,46.34 47.89,98.54 57.46,156.63 9.57,58.09 14.37,115.84 14.37,173.2l0 368.42 103.89 0 0 288.99 -556.97 0 0 -602.28c0,-19.11 -0.37,-40.45 -1.13,-63.98 -0.73,-23.51 -4.77,-45.58 -12.14,-66.18 -7.37,-20.58 -19.51,-38.22 -36.46,-52.94 -16.97,-14.71 -41.65,-22.07 -74.06,-22.07 -27.99,0 -51.2,6.26 -69.61,18.74 -18.41,12.51 -32.78,28.69 -43.09,48.54 -10.33,19.87 -17.31,41.94 -21.01,66.21 -3.67,24.24 -5.53,48.15 -5.53,71.68l0 313.29 159.15 0 0 288.99zm727.16 0l0 -397.11 296.16 0c0,29.42 9.21,53.69 27.64,72.8 18.41,19.14 40.15,34.19 65.2,45.24 25.05,11.02 50.83,18.74 77.35,23.17 26.52,4.4 47.89,6.6 64.1,6.6 22.11,0 43.83,-4.77 65.2,-14.32 21.35,-9.56 32.05,-29.79 32.05,-60.68 0,-16.18 -9.57,-29.77 -28.74,-40.81 -19.15,-11.02 -43.83,-20.94 -74.04,-29.77 -30.21,-8.82 -64.84,-18.04 -103.89,-27.59 -39.03,-9.56 -78.45,-20.95 -118.24,-34.19 -38.32,-13.25 -74.78,-29.4 -109.4,-48.54 -34.64,-19.11 -65.94,-42.65 -93.95,-70.58 -27.99,-27.96 -50.1,-61.05 -66.31,-99.3 -16.21,-38.22 -24.31,-83.09 -24.31,-134.56 0,-55.89 12.9,-104.06 38.69,-144.51 25.78,-40.45 58.2,-73.54 97.25,-99.27 39.05,-25.73 81.04,-44.85 125.97,-57.36 44.95,-12.49 87.31,-18.74 127.1,-18.74 75.14,0 142.91,16.91 203.32,50.74 60.43,33.82 102.42,74.27 126,121.34l17.68 -145.61 271.85 0 0 397.12 -287.32 0c0,-23.54 -6.64,-45.24 -19.88,-65.08 -13.27,-19.87 -30.58,-37.51 -51.96,-52.96 -21.35,-15.45 -45.3,-27.57 -71.81,-36.39 -26.54,-8.82 -53.79,-13.25 -81.78,-13.25 -23.58,0 -43.85,6.26 -60.8,18.74 -16.94,12.51 -25.41,32.72 -25.41,60.68 0,16.18 7.37,29.77 22.11,40.81 14.74,11.02 34.99,21.68 60.77,31.99 25.78,10.29 54.89,20.58 87.31,30.87 32.42,10.31 66.31,21.34 101.66,33.12 41.26,14.69 83.25,30.5 126,47.41 42.73,16.91 81.04,38.25 114.93,63.98 33.89,25.73 61.5,58.09 82.88,97.07 21.35,38.98 32.05,87.15 32.05,144.51 0,51.47 -11.43,97.81 -34.25,138.99 -22.84,41.18 -53.06,76.1 -90.62,104.8 -37.58,28.67 -81.41,50.37 -131.53,65.08 -50.1,14.69 -101.66,22.04 -154.69,22.04 -79.57,0 -149.21,-16.18 -208.88,-48.54 -59.67,-32.36 -102.79,-69.85 -129.3,-112.49l-19.88 134.56 -276.28 0z"/>
  <path class="fil15" d="M12027.91 3270.77l0 -592.19 264.19 0 0 -2004.36 -264.19 0 0 -587.66 1699.14 0c379.63,0 660.56,67.58 842.76,202.7 182.21,135.16 273.31,327.23 273.31,576.28 0,97.16 -7.56,181.43 -22.79,252.81 -15.18,71.34 -39.48,135.12 -72.85,191.33 -33.42,56.17 -78.95,105.5 -136.68,148.05 -57.68,42.5 -129.07,80.46 -214.12,113.89 82.02,24.25 159.46,56.95 232.37,97.93 72.85,40.99 136.63,93.35 191.28,157.13 54.7,63.78 97.98,138.97 129.85,225.54 31.91,86.52 47.82,184.45 47.82,293.8 0,321.91 -96.42,556.52 -289.27,703.79 -192.84,147.32 -509.43,220.95 -949.77,220.95l-1731.05 0zm1571.59 -592.19c97.2,0 182.98,-34.16 257.4,-102.52 74.41,-68.32 111.6,-164.74 111.6,-289.26 0,-115.4 -31.87,-211.05 -95.64,-286.97 -63.77,-75.93 -159.46,-113.89 -287.02,-113.89l-350.75 0 0 792.65 364.41 0zm-364.41 -1990.7l0 683.3 277.89 0c121.46,0 203.44,-31.13 245.98,-93.4 42.5,-62.26 63.78,-148.05 63.78,-257.35 0,-106.33 -28.11,-188.31 -84.27,-246.03 -56.21,-57.68 -128.33,-86.52 -216.41,-86.52l-286.97 0zm3507.63 2664.87c-236.86,0 -455.51,-34.89 -655.97,-104.77 -200.41,-69.83 -372.76,-174.59 -517,-314.3 -144.29,-139.71 -256.62,-315.08 -337.13,-526.17 -80.46,-211.05 -120.72,-459.32 -120.72,-744.78 0,-245.98 38.74,-470.74 116.18,-674.22 77.44,-203.48 186.75,-378.85 327.96,-526.12 141.22,-147.32 309.81,-261.2 505.67,-341.67 195.87,-80.46 412.23,-120.72 649.14,-120.72 279.41,0 521.59,40.26 726.58,120.72 204.99,80.47 375.05,194.36 510.21,341.67 135.12,147.27 235.35,325.72 300.64,535.25 65.29,209.53 97.93,441.85 97.93,696.96 0,258.13 -34.89,489.72 -104.77,694.71 -69.83,204.99 -173.08,378.86 -309.76,521.59 -136.68,142.73 -304.44,252.08 -503.38,328.01 -198.9,75.88 -427.41,113.85 -685.59,113.85zm0 -715.16c72.9,0 137.46,-22.79 193.62,-68.36 56.16,-45.53 104.77,-109.31 145.76,-191.33 41.03,-81.98 72.12,-180.69 93.39,-296.1 21.28,-115.4 31.91,-244.47 31.91,-387.2 0,-136.63 -9.9,-265.74 -29.62,-387.2 -19.76,-121.46 -50.11,-227 -91.1,-316.59 -40.99,-89.59 -92.66,-160.2 -154.88,-211.83 -62.26,-51.63 -137.46,-77.44 -225.49,-77.44 -69.88,0 -133.65,23.52 -191.33,70.61 -57.72,47.04 -107.06,113.11 -148.05,198.16 -41.03,85 -72.9,186.75 -95.69,305.22 -22.79,118.43 -34.16,247.5 -34.16,387.2 0,148.78 12.93,283.17 38.74,403.16 25.81,119.94 60.71,222.42 104.77,307.47 44.02,85.05 97.16,150.34 159.42,195.87 62.26,45.57 129.85,68.36 202.7,68.36zm5352.62 633.18l-1826.74 0 0 -596.78 432.77 0 -95.64 -309.76 -933.86 0 -95.64 309.76 355.29 0 0 596.78 -1448.62 0 0 -596.78 309.76 0 614.98 -1999.77 -186.75 0 0 -587.66 1749.25 0 806.31 2587.43 318.88 0 0 596.78zm-2254.93 -1453.16l596.78 0 -300.68 -983.98 -296.1 983.98zm2437.14 -1731.05l1480.48 0c264.23,0 478.35,24.3 642.31,72.9 164,48.55 292.34,115.4 384.95,200.41 92.62,85.05 154.88,184.5 186.75,298.39 31.91,113.89 47.87,236.12 47.87,366.71 0,88.08 -16.74,170.06 -50.11,245.98 -33.42,75.93 -79.73,142 -138.97,198.16 -59.19,56.17 -129.07,103.25 -209.53,141.22 -80.47,37.97 -167.81,63.04 -261.94,75.15 78.95,12.15 154.15,37.23 225.49,75.19 71.39,37.96 134.39,85.78 189.04,143.46 54.7,57.72 98.71,123.02 132.14,195.92 33.38,72.85 50.11,150.29 50.11,232.32 0,97.16 7.56,173.08 22.74,227.78 15.22,54.65 44.06,81.98 86.56,81.98 69.88,0 104.77,-48.6 104.77,-145.76l0 -150.34 305.22 0 0 250.52c0,94.18 -10.64,185.28 -31.86,273.36 -21.28,88.08 -57.72,165.52 -109.35,232.32 -51.63,66.8 -119.94,120.72 -204.99,161.71 -85.05,40.99 -191.33,61.48 -318.88,61.48 -300.64,0 -523.1,-74.41 -667.34,-223.2 -144.24,-148.83 -216.41,-356.85 -216.41,-624.11 0,-103.25 -4.54,-188.26 -13.66,-255.11 -9.08,-66.8 -29.57,-119.16 -61.48,-157.13 -31.87,-37.96 -78.22,-64.56 -138.93,-79.73 -60.75,-15.18 -141.22,-22.79 -241.44,-22.79l0 706.08 277.89 0 0 601.32 -1471.41 0 0 -601.32 255.11 0 0 -1986.16 -255.11 0 0 -596.73zm1193.51 592.19l0 774.4 204.99 0c133.6,0 239.93,-31.13 318.88,-93.35 78.95,-62.26 118.43,-154.15 118.43,-275.6 0,-136.68 -35.67,-238.42 -107.06,-305.22 -71.34,-66.8 -173.86,-100.23 -307.47,-100.23l-227.78 0zm2163.82 2592.01l0 -605.86 282.43 0 0 -1977.03 -282.43 0 0 -601.32 1389.38 0c276.38,0 521.59,40.21 735.7,120.72 214.12,80.46 394.81,189.82 542.08,327.96 147.32,138.19 259.65,301.42 337.09,489.72 77.49,188.3 116.18,391.78 116.18,610.44 0,522.32 -150.34,925.47 -450.98,1209.42 -300.68,283.95 -733.41,425.94 -1298.28,425.94l-1371.18 0zm2072.68 -1635.36c0,-121.5 -12.88,-239.2 -38.7,-353.04 -25.81,-113.89 -66.07,-214.9 -120.72,-302.97 -54.65,-88.03 -125.26,-158.64 -211.83,-211.82 -86.56,-53.14 -190.55,-79.69 -312.05,-79.69l-173.08 0 0 1977.03 173.08 0c121.5,-3.03 225.49,-31.13 312.05,-84.27 86.56,-53.14 157.17,-126.04 211.83,-218.66 54.65,-92.66 94.91,-201.23 120.72,-325.72 25.81,-124.53 38.7,-258.13 38.7,-400.86z"/>
 </g>
</svg>
